<svg id="_3rd" data-name="3rd" xmlns="http://www.w3.org/2000/svg" viewBox="0 0 1714.56 1066.73"><defs><style>.cls-1{fill:#ccc;}.cls-2,.cls-4,.cls-5,.cls-6{fill:#999;}.cls-2,.cls-3,.cls-6{stroke:#000;stroke-miterlimit:10;}.cls-2,.cls-3{stroke-width:4px;}.cls-3{fill:#e6e6e6;}.cls-5,.cls-7{fill-rule:evenodd;}.cls-6{stroke-width:3px;}</style></defs><title>flr_03</title><path class="cls-1" d="M101.93,40.07V1017.3a18.28,18.28,0,0,0,18.23,18.23H730.38v47.82h447.92v-47.82h612.1a18.28,18.28,0,0,0,18.23-18.23V40.07a18.28,18.28,0,0,0-18.23-18.23H120.16A18.28,18.28,0,0,0,101.93,40.07ZM320.66,807.49V654.83H667V807.49ZM1599.28,649.9V789.67H1245.61V649.9ZM318.47,401V245.32H834.94V401Zm1279-158V399H1088.11v-156Z" transform="translate(-98.79 -18.04)"/><path class="cls-1" d="M106.65,41.5v977.23A18.28,18.28,0,0,0,124.88,1037H735.1v47.82H1183V1037h612.1a18.28,18.28,0,0,0,18.23-18.23V41.5a18.28,18.28,0,0,0-18.23-18.23H124.88A18.28,18.28,0,0,0,106.65,41.5ZM325.38,808.92V656.26H671.7V808.92ZM1604,651.33V791.09H1250.33V651.33ZM323.18,402.47V246.75H839.66V402.47Zm1279-158v156H1092.83v-156Z" transform="translate(-98.79 -18.04)"/><polygon class="cls-2" points="775.8 595.95 775.8 550.65 788.2 550.65 788.32 563.17 806.82 581.68 820.55 581.29 820.55 595.4 775.8 595.95"/><polygon class="cls-2" points="737.97 712.89 737.97 644.65 762.71 644.65 763.08 691.4 827.21 690.8 827.21 712.06 737.97 712.89"/><polygon class="cls-2" points="989.11 715.32 989.11 647.08 964.37 647.08 964 693.83 899.87 693.23 899.87 714.49 989.11 715.32"/><polygon class="cls-2" points="775.52 418.91 820.82 418.91 820.82 431.31 808.3 431.43 789.8 449.93 790.18 463.66 776.07 463.66 775.52 418.91"/><polygon class="cls-2" points="947.09 418.36 947.09 463.66 934.69 463.66 934.57 451.13 916.07 432.63 902.34 433.02 902.34 418.91 947.09 418.36"/><polygon class="cls-2" points="947.37 595.68 902.07 595.68 902.07 583.27 914.59 583.15 933.09 564.65 932.71 550.93 946.82 550.93 947.37 595.68"/><circle class="cls-3" cx="703.42" cy="904.83" r="6.93"/><circle class="cls-3" cx="703.42" cy="845.68" r="6.93"/><circle class="cls-3" cx="703.42" cy="786.53" r="6.93"/><circle class="cls-3" cx="782.72" cy="492.29" r="6.93"/><circle class="cls-3" cx="782.72" cy="521.79" r="6.93"/><circle class="cls-3" cx="846.43" cy="588.11" r="6.93"/><circle class="cls-3" cx="877.9" cy="588.11" r="6.93"/><circle class="cls-3" cx="846.43" cy="647.08" r="6.93"/><circle class="cls-3" cx="877.9" cy="647.08" r="6.93"/><circle class="cls-3" cx="941.49" cy="521.79" r="6.93"/><circle class="cls-3" cx="941.49" cy="492.29" r="6.93"/><circle class="cls-3" cx="846.43" cy="422.7" r="6.93"/><circle class="cls-3" cx="877.9" cy="422.7" r="6.93"/><circle class="cls-3" cx="1016.41" cy="786.53" r="6.93"/><circle class="cls-3" cx="1016.41" cy="845.32" r="6.93"/><circle class="cls-3" cx="1016.41" cy="904.83" r="6.93"/><circle class="cls-3" cx="948.42" cy="972.55" r="6.93"/><circle class="cls-3" cx="948.42" cy="1033.02" r="6.93"/><circle class="cls-3" cx="889.58" cy="1033.02" r="6.93"/><circle class="cls-3" cx="889.58" cy="971.91" r="6.93"/><circle class="cls-3" cx="830.52" cy="971.91" r="6.93"/><circle class="cls-3" cx="830.52" cy="1033.66" r="6.93"/><circle class="cls-3" cx="771.83" cy="1033.66" r="6.93"/><circle class="cls-3" cx="771.83" cy="971.91" r="6.93"/><polygon class="cls-4" points="896.72 74.82 906.5 74.91 906.5 84.82 968.15 84.73 968.15 3.8 910.77 3.8 909.63 3.8 896.72 3.8 896.72 74.82"/><polygon class="cls-4" points="755.63 85.2 812.61 85.2 812.61 74.4 823.25 74.4 823.25 3.33 812.61 3.33 755.63 3.33 755.63 85.2"/><path class="cls-4" d="M102.5,39.64v400H315v56.65l446.31,1.42h78.1V405.09h89.66V242H855.38V165.12H797.16V21.84H120.3A17.8,17.8,0,0,0,102.5,39.64ZM836,244.41V404.84H762.6V402L319,400.54V244.41Z" transform="translate(-98.79 -18.04)"/><path class="cls-4" d="M1117.89,165.12h-46.71V239h-76V403.07h90.22v91.65h517.27V440.55h203.3v-70.9h-.19V40.77a15.13,15.13,0,0,0-15.13-15.13H1117.89Zm483.95,74.15V399h-450.4v3.07h-63.25V239.26Z" transform="translate(-98.79 -18.04)"/><polygon class="cls-5" points="1630.85 593.79 1623.21 593.79 1623.21 943.96 1585.21 943.96 1585.21 593.79 1504.91 593.79 1504.91 534.4 1143.76 534.4 1143.76 631.86 1503.7 631.86 1503.7 775.55 1079.51 775.55 1079.51 1013.66 1504.72 1013.66 1706.13 1013.66 1706.13 923.24 1713.97 923.24 1713.97 593.79 1630.85 593.79"/><polygon class="cls-6" points="812.82 94.78 812.82 74.87 832.37 74.87 832.37 87.13 825.21 94.78 812.82 94.78"/><polygon class="cls-6" points="833.21 169.09 813.3 169.09 813.3 149.53 825.56 149.53 833.21 156.7 833.21 169.09"/><polygon class="cls-6" points="906.5 149.35 906.5 169.27 886.95 169.27 886.95 157.01 894.11 149.35 906.5 149.35"/><polygon class="cls-6" points="886.76 75.42 906.68 75.42 906.68 94.97 894.42 94.97 886.76 87.81 886.76 75.42"/><rect class="cls-4" x="695.94" y="585.24" width="106.64" height="41.83" transform="translate(44.32 1337.38) rotate(-90)"/><rect class="cls-4" x="1103.58" y="583.47" width="105.76" height="43.69" transform="translate(452.35 1743.74) rotate(-90)"/><path class="cls-5" d="M317.45,609.77a1.91,1.91,0,0,1-1.91,1.91H104.41a1.91,1.91,0,0,0-1.91,1.91v405.34a16.49,16.49,0,0,0,16.59,16.49l613.08-3.73a1.91,1.91,0,0,0,1.91-1.91V810.5a1.91,1.91,0,0,0-1.91-1.91H445.67v-1.28H319.94a1.91,1.91,0,0,1-1.91-1.91V656.75a1.91,1.91,0,0,1,1.91-1.91H669.48a1.91,1.91,0,0,0,1.91-1.91v-97a1.91,1.91,0,0,0-1.91-1.91H319.37a1.91,1.91,0,0,0-1.91,1.91Z" transform="translate(-98.79 -18.04)"/><path class="cls-7" d="M671.44,811.29V651H317.52V811.29Zm-346.32-7.6V658.63H663.85V803.69Z" transform="translate(-98.79 -18.04)"/><path class="cls-7" d="M1602,402.81V239.26H1085V402.81Zm-509.39-7.6V246.86h501.79V395.22Z" transform="translate(-98.79 -18.04)"/><path class="cls-7" d="M98.79,40.07V1017.3a22.05,22.05,0,0,0,22,22H738V738.52h433.08v300.8h620a22.05,22.05,0,0,0,22-22V40.07a22.05,22.05,0,0,0-22-22H120.82A22.05,22.05,0,0,0,98.79,40.07ZM1791.07,25.64a14.45,14.45,0,0,1,14.43,14.43V1017.3a14.45,14.45,0,0,1-14.43,14.43H1178.65V686.12h-7.94v44.81h-79V554h-6.37V659.47H995.52v7.91h89.84v63.55H837.3V667.4h89.84V659.5H837.3V554h-6.37V730.93H738.32V686.12h-7.94v44.81h0v300.8H120.82a14.45,14.45,0,0,1-14.43-14.43V40.07a14.45,14.45,0,0,1,14.43-14.43Z" transform="translate(-98.79 -18.04)"/><path class="cls-7" d="M315.33,241.52V404.84H839.4V241.52Zm516.47,7.6V397.24H322.92V249.12Z" transform="translate(-98.79 -18.04)"/><path class="cls-7" d="M1603.74,793.46V646.1H1242.48V793.46Zm-353.67-7.6V653.7h346.07V785.87Z" transform="translate(-98.79 -18.04)"/></svg>