<svg xmlns="http://www.w3.org/2000/svg" viewBox="0 0 1714.56 1017.38"><title>flr_27</title><rect width="1714.56" height="1017.38" style="fill:none"/><polygon points="956.81 644.9 956.81 634.15 761.47 634.15 761.47 644.9 723.51 644.9 723.51 607.23 733.26 607.23 733.26 411.9 723.51 411.9 723.51 374.23 761.47 374.23 761.47 384.98 956.81 384.98 956.81 374.23 994.18 374.23 994.18 411.9 984.43 411.9 984.43 607.23 994.18 607.23 994.18 644.9 956.81 644.9" style="fill:#ccc"/><path d="M1089,396.27v29.67h-9.74V629.27H1089v29.67H1059.6V648.19H856.27v10.75h-30V629.27H836V425.94H826.3V396.27h30V407H1059.6V396.27H1089m8-8H1051.6V399H864.27V388.27h-46v45.67H828V621.27H818.3v45.67h46V656.19H1051.6v10.75H1097V621.27h-9.74V433.94H1097V388.27Z" transform="translate(-98.79 -18.04)"/><rect x="757.18" y="407.9" width="203.33" height="203.33" style="fill:#999"/></svg>