<svg id="_10th" data-name="10th" xmlns="http://www.w3.org/2000/svg" viewBox="0 0 1697.68 737.23"><title>Floor_Stack</title><polygon points="1692.68 634.26 1692.68 300.31 1103 300.31 1019.26 216.57 1019.26 5 685.32 5 685.32 210.62 595.63 300.31 5 300.31 5 634.26 596.51 634.26 685.32 723.06 685.32 732.23 1019.26 732.23 1019.26 717.18 1102.19 634.26 1692.68 634.26" style="fill:#ccc"/><polygon points="1692.68 634.26 1692.68 300.31 1103 300.31 1019.26 216.57 1019.26 5 685.32 5 685.32 210.62 595.63 300.31 5 300.31 5 634.26 596.51 634.26 685.32 723.06 685.32 732.23 1019.26 732.23 1019.26 717.18 1102.19 634.26 1692.68 634.26" style="fill:none;stroke:#000;stroke-linejoin:round;stroke-width:10px"/><polygon points="178.07 537.59 224.53 537.59 224.53 509.29 249.14 509.29 249.14 425.8 178.07 425.8 178.07 537.59" style="fill:gray"/><polygon points="678.09 497.56 657.62 497.56 657.62 503.77 641.75 503.77 641.75 516.88 641.75 535.28 641.75 554.49 606.79 554.49 606.79 632.35 679.28 632.35 679.25 568.63 679.24 568.63 679.24 543.34 684.53 543.34 684.53 532.29 678.09 532.29 678.09 497.56" style="fill:gray"/><polygon points="1079.32 537.13 1054.61 537.13 1054.61 505.38 1046.33 505.38 1046.33 498.71 1020.64 498.71 1020.64 628.21 1089.88 628.21 1089.9 537.13 1079.32 537.13 1079.32 537.13" style="fill:gray"/><rect x="712.82" y="448.8" width="72.99" height="92.93" style="fill:gray"/><rect x="912.77" y="448.8" width="74.52" height="92.93" style="fill:gray"/><polygon points="910.93 541.73 910.93 448.8 787.65 448.8 787.65 541.73 822.61 541.73 822.61 531.91 877.81 531.91 877.81 541.73 910.93 541.73" style="fill:gray"/><polygon points="1016.66 352.81 1016.66 446.96 1020.78 446.96 1020.78 448.8 1020.72 448.8 1020.72 454.63 1047.71 454.63 1047.71 446.96 1053.84 446.96 1053.84 352.81 1016.66 352.81" style="fill:gray"/><polygon points="684.53 352.81 647.5 352.81 647.5 400.66 654.86 400.66 654.86 431.94 647.5 431.94 647.5 447.27 657.62 447.27 657.62 455.86 677.56 455.86 677.56 447.27 677.62 447.27 677.62 446.96 684.53 446.96 684.53 352.81" style="fill:gray"/><rect x="927.8" y="352.82" width="87.02" height="94.14" style="fill:gray"/><rect x="686.37" y="352.82" width="87.17" height="94.14" style="fill:gray"/><rect x="775.38" y="352.82" width="150.58" height="94.14" style="fill:gray"/><polygon points="1448.26 508.6 1474.37 508.6 1474.37 535.51 1520.13 535.51 1520.13 426.72 1448.26 426.72 1448.26 508.6" style="fill:gray"/><polygon points="1319.11 381.87 1200.2 381.87 1200.2 497.1 1200.2 605.67 1319.11 605.67 1319.11 381.87" style="fill:gray"/><rect x="1320.95" y="381.87" width="125.47" height="223.79" style="fill:gray"/><rect x="1548.2" y="330.74" width="113.62" height="205.01" style="fill:gray"/><polygon points="519.16 494.35 519.16 381.41 250.98 381.41 250.98 425.8 250.98 425.8 250.98 537.82 254.2 537.82 254.2 575.76 322.74 575.76 322.74 600.58 322.74 602.68 322.74 605.87 479.29 605.82 479.29 506.46 519.18 506.46 519.16 494.35 519.16 494.35" style="fill:gray"/><rect x="33.09" y="332.88" width="117.15" height="202.87" style="fill:gray"/><path d="M1204.71,471.69,1121,388V176.38H787V382l-89.69,89.69H106.71V805.64H698.22l88.8,88.8v9.17H1121V888.56l82.92-82.92h590.49V471.69ZM1765.37,709h-89v25.76H1550v44.16h-249.9V668.49h-99.13v7.82h-14.26v30.36h6.77l0,94.76h-72.91V740H978.87l-.11,10.12-55.32.35.33-9.88-141-.58,0,65.54H706.66V724h35V706.67H715.17V675.85h-14v-8.28H622.71l0,12.11H582.84V779h-.92l-159.32.05v-5H333.14V735.19H227.57V709H133V502.42H652v123h45.39v-8.89h11.35V480H935.67V473H917.58v-7.05l-13.19-6.13V440.17l8.28-4V423.92l-8.28-4.29V400.3l11.35-5.83v-23l-11.65-6.75V344.8l8.59-4.29V327.62L905,325.17V305.24l12.57-8.59v-8.89h69v8.89l11.35,8.59v19.93L989,327.62V340.5l8.89,4.6v19.63l-9.81,6.75v23l9.81,5.83v19.32L989,423.92v12.27l8.89,4V459.8l-11.35,6.13V473H966.95V480h228.78V618.35h3.37v7.05h50.6V523.89h97.52V500.28h418.15Z" transform="translate(-101.71 -171.38)" style="fill:gray"/></svg>