<svg id="_4th" data-name="4th" xmlns="http://www.w3.org/2000/svg" viewBox="0 0 1706.19 1053.85"><title>flr_04</title><path d="M113,42.05v970.23a18.17,18.17,0,0,0,18.13,18.1H742.83v27.41l65,.62,5.88-6.22,301.62.58,9.55,9.25h59.77l-.89-31.64H1792.7a18.17,18.17,0,0,0,18.13-18.1V42.05A18.17,18.17,0,0,0,1792.7,24H131.15A18.17,18.17,0,0,0,113,42.05ZM501.35,995.94l-.26-168.27H673V995.94ZM1602.42,827V980.6H1187.91V827ZM319.69,805.14V653.58l355.43-1.16V804ZM1006,717.92H916.37v-3.39l-57.15-.19v-6.77c-2.45-.43-18.86-3.86-18.86-19.55,0-17,19.18-20,19.18-20v-6.41h56.77v-3.77h89.61v3.39l60.23.19v6.77c2.45.43,18.86,3.86,18.86,19.55,0,17-19.18,20-19.18,20v6.41H1006Zm605.62-67.45v142L1253,791.23l.77-140.23ZM1017.44,447.81l27.45,28.91v99l-27.45,28.91H908.71l-27.45-28.91V475.21l25-29.25Zm-701-50.64V242.57L831.27,241V395.63ZM1600.79,243.59l1.8,157.21-508.53-2.37V243.59Z" transform="translate(-106.9 -12.07)" style="fill:#ccc"/><polygon points="982.58 232.03 883.57 232.03 883.57 252.36 892.32 252.36 892.32 380.75 880.74 380.75 880.74 388.73 979.03 388.73 982.58 388.73 982.58 232.03" style="fill:#999"/><polygon points="980.82 223.95 966.04 208.49 980.19 193.57 1028.82 193.57 1028.82 230.88 980.93 230.88 980.82 223.95" style="fill:#999"/><polygon points="677.47 228.95 677.47 193.44 728 193.44 743.34 208.88 725.08 228.95 677.47 228.95" style="fill:#999"/><path d="M1627.81,140.67h75.52l.18,269.14,105.18-.77V42.13a18.58,18.58,0,0,0-18.53-18.53l-162.36.77Z" transform="translate(-106.9 -12.07)" style="fill:#999"/><polygon points="1227.07 204.03 1454.39 204.25 1454.39 128.6 1518.08 128.6 1518.08 11.88 1227.07 11.88 1227.07 204.03" style="fill:#999"/><polygon points="941.7 175.81 949.11 168.35 1054.92 168.35 1054.92 203.86 1224.75 204.02 1224.75 12.3 941.7 12.3 941.7 175.81" style="fill:#999"/><polygon points="191.86 202.59 374.64 202.59 374.64 207.48 390.81 207.48 390.81 202.21 434.59 202.21 434.59 15.78 191.86 15.78 191.86 202.59" style="fill:#999"/><path d="M110.88,42.38l.14,257H293V217.35h-.11l-.14-193.49H129.4A18.58,18.58,0,0,0,110.88,42.38Z" transform="translate(-106.9 -12.07)" style="fill:#999"/><polygon points="4.12 627.76 62.01 626.99 62.01 637.03 120.14 637.03 120.14 398.76 186.13 398.76 186.13 290.18 4.12 290.96 4.12 627.76" style="fill:#999"/><polygon points="203.49 488.31 203.49 481.36 209.57 481.36 209.57 427.33 188.09 427.33 188.09 419.22 137.91 419.22 137.91 499.5 186.93 499.5 186.93 487.92 203.49 488.31" style="fill:#999"/><polygon points="625.76 388.73 212.66 388.73 212.66 391.31 212.79 392.59 212.79 427.33 212.66 427.33 212.66 484.45 206.58 484.45 206.58 487.15 206.61 487.15 206.61 499.5 625.76 499.5 625.76 493.71 625.76 388.73" style="fill:#999"/><polygon points="724.56 235.12 724.56 251.33 724.56 385.9 726.88 385.9 726.88 388.73 628.84 388.73 628.84 493.71 722.24 493.71 722.24 501.81 730.35 501.81 730.35 388.73 829.02 388.73 829.02 383.07 816.42 383.07 816.42 251.33 825.94 251.33 825.94 232.03 724.56 232.03 724.56 235.12" style="fill:#999"/><path d="M547.81,215.16H761.2V178.5h48.24V121.76h19.89c0-3.45,0-9.39,0-14H801.1V23.86H547.81Z" transform="translate(-106.9 -12.07)" style="fill:#999"/><path d="M849.19,23.86h-45v80.79h28.16v1.53c0,3.1.06,8.61.06,12.87,0,1,0,1.9,0,2.71h16.77Z" transform="translate(-106.9 -12.07)" style="fill:#999"/><path d="M852.28,25.47v96.29h0v48.63H837.2v8.49h31.68s20.08,24.78,94.56,23.54c49.34-.82,79.51-11.22,82.85-12.43V25.47" transform="translate(-106.9 -12.07)" style="fill:#999"/><polygon points="1599.1 696.72 1599.1 696.72 1599.1 847.45 1701.79 847.45 1701.79 400.82 1598.9 400.82 1599.1 696.72" style="fill:#999"/><path d="M1620.35,617.45V583.74h-16.72v66.63h5.84v142h-5.84v236.46h186.54a18.58,18.58,0,0,0,18.53-18.53V862.61H1702.92V708.79h-23.15l.86-91.34Z" transform="translate(-106.9 -12.07)" style="fill:#999"/><path d="M837.36,538.2h-4.63v8H773v5.3H736.33V656.16l-63.36.26v8.06h-2.24V810.79l-170.67-.25v-1.78h-.51v219.63l241.35,2,.06,27.26,64.26.62,5.4-5.62h302.59l10,8.68,59.29.57,1-33.05h417.48l-.51-49.92H1188.06V825.35h412.48V792.42H1250V757.17H1226.4v14.41h-34.48v-211h-31.65V547.08h-65.61v-8.49h-7.88v48h2.74V652.7H837.36ZM675.26,828.7V997H502.35V828.7ZM1009.81,656.3v3.47l58.38.19v6.93c2.51.44,19.27,3.95,19.27,20,0,17.37-19.59,20.46-19.59,20.46v6.56h-58v3.86H918.32v-3.47l-58.38-.19V707.2c-2.51-.44-19.27-3.95-19.27-20,0-17.37,19.59-20.46,19.59-20.46v-6.56h58V656.3Z" transform="translate(-106.9 -12.07)" style="fill:#999"/><polygon points="196.1 830.23 196.1 830.26 142.74 830.26 142.74 819.65 133.09 819.65 133.09 830.26 135.79 830.26 135.79 846.86 141.19 846.86 141.19 870.83 206.08 870.83 206.09 830.23 196.1 830.23" style="fill:#999"/><polygon points="196.19 805.99 196.2 827.14 209.17 827.14 209.17 873.92 156.05 873.92 156.05 1014.74 389.3 1014.74 389.3 1016.29 389.55 1016.29 389.55 796.68 217.32 796.68 217.32 796.39 213.56 796.39 213.56 805.99 196.19 805.99" style="fill:#999"/><path d="M111,1009.84a18.58,18.58,0,0,0,18.53,18.53H259.23v-1.54h.64V886H242v0h-1.54v0H227V652.19H165.83v-10H111Z" transform="translate(-106.9 -12.07)" style="fill:#999"/><polygon points="210.86 729.53 138.11 729.53 138.11 802.86 196.19 802.86 196.19 802.9 210.47 802.9 210.47 781.37 210.86 781.37 210.86 729.53" style="fill:#999"/><polygon points="139.44 722.97 138.11 722.97 138.11 726.44 212.53 726.44 212.53 640.11 554.22 641 626.34 641 626.34 527.93 139.44 527.93 139.44 722.97" style="fill:#999"/><polygon points="1493.63 570.5 1493.63 570.5 1493.63 528.45 1088.1 528.45 1088.1 756.41 1116.4 756.41 1116.4 742 1143.13 742 1143.13 638.3 1493.63 638.3 1493.63 570.5" style="fill:#999"/><polygon points="1496.71 528.45 1496.71 568.58 1516.53 568.58 1516.53 602.29 1573.74 602.29 1574.4 531.92 1501.85 533.08 1501.85 528.45 1496.71 528.45" style="fill:#999"/><polygon points="1564.39 429.77 1496.34 429.77 1496.34 504 1522.19 504 1522.19 479.56 1564.39 479.56 1564.39 429.77" style="fill:#999"/><polygon points="1476.39 230.68 1495.88 230.88 1495.69 388.73 979.03 388.73 979.03 501.69 984.95 501.69 984.95 494.48 1082.21 494.48 1082.21 500.66 1493.25 500.66 1493.25 426.68 1572.11 426.68 1572.11 391.05 1572.11 383.91 1572.11 151.76 1502.99 151.76 1498.78 151.76 1476.39 151.76 1476.39 230.68" style="fill:#999"/><path d="M675.36,810.79V647.93H315.67V810.79Zm-352-7.72V655.65H667.64V803.07Z" transform="translate(-106.9 -12.07)" style="fill-rule:evenodd"/><path d="M1605.68,405.43V239.22H1087.74V405.43Zm-510.34-7.72V246.94h502.73V397.72Z" transform="translate(-106.9 -12.07)" style="fill-rule:evenodd"/><path d="M312.58,236.88v166H835.84v-166Zm515.67,7.72V395.14H320.16V244.6Z" transform="translate(-106.9 -12.07)" style="fill-rule:evenodd"/><path d="M1614.28,796.28V646.52H1247.12V796.28Zm-359.44-7.72V654.23h351.72V788.56Z" transform="translate(-106.9 -12.07)" style="fill-rule:evenodd"/><polygon points="774.35 461.94 774.35 564.85 802.4 594.44 909.94 594.44 937.99 564.85 937.99 463.48 909.94 433.89 799.31 433.89 774.35 461.94" style="fill:none;stroke:#000;stroke-miterlimit:10;stroke-width:5px;fill-rule:evenodd"/><path d="M916,661.71H858v6.56s-19.59,3.09-19.59,20.46c0,16.07,16.76,19.58,19.27,20v6.93l58.38.19v3.47h91.55v-3.86h58v-6.56s19.59-3.09,19.59-20.46c0-16.07-16.76-19.58-19.27-20v-6.93l-58.38-.19v-3.47H916Z" transform="translate(-106.9 -12.07)" style="fill:none;stroke:#000;stroke-miterlimit:10;stroke-width:5px"/><rect x="1316.22" y="696.44" width="153.61" height="414.51" transform="translate(382.42 2284.65) rotate(-90)" style="fill:none;stroke:#000;stroke-miterlimit:10;stroke-width:5px"/><rect x="502.38" y="825.35" width="168.27" height="172.91" transform="translate(-432.19 1486.24) rotate(-90)" style="fill:none;stroke:#000;stroke-miterlimit:10;stroke-width:5px"/><path d="M106.9,43.09v967.42a21.89,21.89,0,0,0,21.92,21.81H737v25.38a3.86,3.86,0,0,0,3.86,3.86h64.84a3.86,3.86,0,0,0,2.73-1.13l4.53-4.53h298.36l8.9,8.9a3.86,3.86,0,0,0,2.73,1.13h60a3.86,3.86,0,0,0,3.86-3.86v-29.75h604.38a21.89,21.89,0,0,0,21.92-21.81V43.09a21.89,21.89,0,0,0-21.92-21.81H128.83A21.89,21.89,0,0,0,106.9,43.09ZM1791.17,28.8a14.34,14.34,0,0,1,14.36,14.29v967.42a14.34,14.34,0,0,1-14.36,14.29h-603.3a1.64,1.64,0,0,1-.45,0h-.63v0l-1.21.07c-.91.06-1.82.12-2.74.16l-3.48.12c-.1,2.4-.22,4.8-.31,7.21h0v25.89h-54.49l-8.9-8.9a3.86,3.86,0,0,0-2.73-1.13H811.39a3.86,3.86,0,0,0-2.73,1.13l-4.53,4.53H744.75v-20c0-.26-.06-.51-.06-.78,0-.78,0-1.43,0-2.05a27.52,27.52,0,0,0-1.34-4l-.73-.56c-1.91-1.33-3.66-1.33-5.55-1.49v.3l-.64-.37c-.29,0-.59-.08-.89-.13v.07H128.83a14.34,14.34,0,0,1-14.36-14.29V43.09A14.34,14.34,0,0,1,128.83,28.8Z" transform="translate(-106.9 -12.07)"/></svg>