<svg id="Surroundings" xmlns="http://www.w3.org/2000/svg" viewBox="0 0 1875.35 1050.4"><defs><style>.cls-1,.cls-5{fill:#ccc;}.cls-2{fill:#696;}.cls-3{fill:#e0ba7e;}.cls-4{fill:#666;}.cls-5{font-size:40px;font-family:RobotoCondensed-Regular, Roboto Condensed;}.cls-6{letter-spacing:0em;}.cls-7{letter-spacing:-0.01em;}.cls-8{letter-spacing:-0.01em;}.cls-9{letter-spacing:-0.01em;}.cls-10{letter-spacing:-0.01em;}.cls-11{letter-spacing:0.02em;}.cls-12{letter-spacing:-0.01em;}.cls-13{letter-spacing:-0.02em;}.cls-14{letter-spacing:-0.02em;}.cls-15{letter-spacing:-0.01em;}.cls-16{letter-spacing:0.02em;}.cls-17{letter-spacing:-0.08em;}.cls-18{letter-spacing:0em;}.cls-19{letter-spacing:-0.01em;}.cls-20{letter-spacing:-0.01em;}.cls-21{letter-spacing:-0.01em;}.cls-22{letter-spacing:-0.01em;}.cls-23{letter-spacing:-0.01em;}.cls-24{letter-spacing:0em;}.cls-25{letter-spacing:-0.01em;}</style></defs><title>surroundings</title><path class="cls-1" d="M415.4,296.35l-72,641.46s-13.09,81.81,52.37,81.81H1783.16s60,2.92,60-80.35,11.94-604.93,11.94-604.93,17.46-86.2-64.37-86.2h-1299S422.17,232.11,415.4,296.35Z" transform="translate(-29.91 -20.22)"/><path class="cls-2" d="M1548.94,488.41h38.92s16.73-64.44,77-64.44c61.9,0,85.61,41.55,85.61,93.66,0,88.14-30.1,109.57-83.19,109.57-67.73,0-80.46-62.69-80.46-62.69h-34.56s-9.82,385.56-3.27,384.1,252,.89,252,.89l7.28-66.36,5.4-529.81-71.28-63.55-194.57-.88Z" transform="translate(-29.91 -20.22)"/><path class="cls-3" d="M896.43,275.89H465.59s-21.09-3.9-24.73,25.32-24.67,156.42-24.67,156.42-2.91,26.3,16,26.3H893.58Z" transform="translate(-29.91 -20.22)"/><path class="cls-3" d="M533.19,548.21H432.91s-23.28-1-24.73,17.53S366,932.94,366,932.94s-6.18,53,25.46,52.59c18.92-.26,497.39,0,497.39,0V856l-352.08,1.48Z" transform="translate(-29.91 -20.22)"/><path class="cls-3" d="M1157.25,863.42v118.8l566.31,3.32c33.95,0,31.24-16.22,31.24-42.06V883.14l-207.8-.88,5.23-317.74h-80.65V858.15Z" transform="translate(-29.91 -20.22)"/><polygon class="cls-3" points="1077.09 269.78 1517.88 268.67 1520.13 467.46 1079.33 468.57 1077.09 269.78"/><path class="cls-4" d="M1482.8,882.26,528,883.14a12,12,0,0,1-12-12l-2.24-548.76a12,12,0,0,1,12-12l954.84-.88a12,12,0,0,1,12,12l2.24,548.76A12,12,0,0,1,1482.8,882.26Z" transform="translate(-29.91 -20.22)"/><circle class="cls-4" cx="16" cy="16" r="16"/><text class="cls-5" transform="translate(906.09 1039.56)"><tspan class="cls-6">S</tspan><tspan class="cls-7" x="20.62" y="0">p</tspan><tspan class="cls-8" x="40.1" y="0">r</tspan><tspan class="cls-9" x="51.89" y="0">i</tspan><tspan class="cls-10" x="60.53" y="0">n</tspan><tspan x="79.55" y="0">g </tspan><tspan class="cls-11" x="108.42" y="0">S</tspan><tspan class="cls-12" x="129.91" y="0">t</tspan><tspan x="141.31" y="0">.</tspan></text><text class="cls-5" transform="translate(927.04 199.2)"><tspan class="cls-13">M</tspan><tspan class="cls-14" x="29.54" y="0">a</tspan><tspan class="cls-15" x="48.07" y="0">i</tspan><tspan x="56.72" y="0">n </tspan><tspan class="cls-16" x="85.23" y="0">S</tspan><tspan class="cls-12" x="106.72" y="0">t</tspan><tspan x="118.12" y="0">.</tspan></text><text class="cls-5" transform="translate(312.52 431.03) rotate(97.8)"><tspan class="cls-17">T</tspan><tspan class="cls-18" x="17.55" y="0">e</tspan><tspan class="cls-19" x="36.09" y="0">m</tspan><tspan class="cls-20" x="65.78" y="0">p</tspan><tspan class="cls-21" x="85.13" y="0">l</tspan><tspan x="93.83" y="0">e </tspan><tspan class="cls-11" x="121.72" y="0">S</tspan><tspan class="cls-12" x="143.21" y="0">t</tspan><tspan x="154.61" y="0">.</tspan></text><text class="cls-5" transform="translate(1841.14 464.3) rotate(91.19)"><tspan class="cls-22">F</tspan><tspan class="cls-15" x="18.97" y="0">i</tspan><tspan class="cls-23" x="27.62" y="0">r</tspan><tspan class="cls-24" x="39.45" y="0">s</tspan><tspan x="57.66" y="0">t </tspan><tspan class="cls-11" x="78.64" y="0">S</tspan><tspan class="cls-25" x="100.12" y="0">t</tspan><tspan x="111.53" y="0">. </tspan></text></svg>